<?xml version="1.0" encoding="UTF-8" standalone="no"?>
<!-- Created with Inkscape (http://www.inkscape.org/) -->
<svg
   xmlns:dc="http://purl.org/dc/elements/1.1/"
   xmlns:cc="http://web.resource.org/cc/"
   xmlns:rdf="http://www.w3.org/1999/02/22-rdf-syntax-ns#"
   xmlns:svg="http://www.w3.org/2000/svg"
   xmlns="http://www.w3.org/2000/svg"
   xmlns:sodipodi="http://sodipodi.sourceforge.net/DTD/sodipodi-0.dtd"
   xmlns:inkscape="http://www.inkscape.org/namespaces/inkscape"
   width="736.68164"
   height="184.14305"
   id="svg2"
   sodipodi:version="0.32"
   inkscape:version="0.45.1"
   version="1.0"
   sodipodi:docbase="/home/juan"
   sodipodi:docname="logo.svg"
   inkscape:output_extension="org.inkscape.output.svg.inkscape">
  <defs
     id="defs4" />
  <sodipodi:namedview
     id="base"
     pagecolor="#ffffff"
     bordercolor="#666666"
     borderopacity="1.0"
     inkscape:pageopacity="0.0"
     inkscape:pageshadow="2"
     inkscape:zoom="0.7"
     inkscape:cx="350"
     inkscape:cy="405.71429"
     inkscape:document-units="px"
     inkscape:current-layer="layer1"
     width="744.09px"
     height="1052.3622px"
     inkscape:window-width="1280"
     inkscape:window-height="977"
     inkscape:window-x="0"
     inkscape:window-y="47" />
  <metadata
     id="metadata7">
    <rdf:RDF>
      <cc:Work
         rdf:about="">
        <dc:format>image/svg+xml</dc:format>
        <dc:type
           rdf:resource="http://purl.org/dc/dcmitype/StillImage" />
      </cc:Work>
    </rdf:RDF>
  </metadata>
  <g
     inkscape:label="Capa 1"
     inkscape:groupmode="layer"
     id="layer1"
     transform="translate(41.197971,-433.14779)">
    <path
       id="path2258"
       d="M -25.147903,614.54085 C -24.862873,612.06365 -24.494443,611.82395 -21.434303,612.12455 C -11.036153,613.14585 -7.5155631,608.71895 -16.383493,605.77355 C -25.248433,602.82905 -27.987953,596.85635 -22.836413,591.70482 C -20.520293,589.38871 -19.749293,589.23059 -12.086413,589.50028 C -4.3897131,589.77115 -3.8098731,589.94295 -3.5119331,592.0408 C -3.2151231,594.13065 -3.5710031,594.29185 -8.5119331,594.30615 C -18.064983,594.33365 -19.102463,597.87755 -10.403333,600.76695 C -2.0596031,603.53825 0.036886914,609.07625 -5.2545531,614.36775 C -8.0344131,617.14765 -8.6011431,617.29085 -16.820983,617.29085 L -25.464323,617.29085 L -25.147903,614.54085 z M 115.64221,612.04085 C 115.62134,607.87565 114.79478,605.24355 111.64221,599.30305 C 109.45668,595.18485 107.66852,591.24731 107.66852,590.55307 C 107.66852,589.78007 109.00884,589.2908 111.12637,589.2908 C 114.16719,589.2908 114.90226,589.8335 117.22139,593.7908 C 118.67183,596.26575 120.23209,598.29075 120.68862,598.29075 C 121.14515,598.29075 122.57054,596.37825 123.85615,594.04075 C 125.75999,590.57923 126.79422,589.73267 129.43107,589.47744 C 131.21167,589.30509 132.66852,589.59995 132.66852,590.13267 C 132.66852,590.6654 130.64352,594.38575 128.16852,598.40005 C 124.19231,604.84925 123.66852,606.37345 123.66852,611.49485 L 123.66852,617.29085 L 119.66852,617.29085 L 115.66852,617.29085 L 115.64221,612.04085 z M 242.06334,615.87735 C 240.95154,612.98005 243.30397,611.55125 248.41909,612.01705 C 254.13091,612.53715 257.91453,610.49705 255.85053,608.01015 C 255.16716,607.18665 252.62212,606.01295 250.19488,605.40175 C 242.74015,603.52465 240.21583,596.65255 245.16359,591.70482 C 247.47971,589.38871 248.25071,589.23059 255.91359,589.50028 C 263.61029,589.77115 264.19013,589.94295 264.48807,592.0408 C 264.78386,594.12355 264.42583,594.29075 259.67233,594.29075 C 249.62908,594.29075 248.11836,598.11685 257.12747,600.73585 C 263.38386,602.55465 265.06852,604.28795 265.06852,608.90645 C 265.06852,614.92635 262.1254,616.73205 251.64853,617.14005 C 244.11335,617.43355 242.58317,617.23205 242.06334,615.87735 z M 384.66852,606.84985 C 384.66852,595.50235 384.56454,595.28415 378.70249,594.33125 C 376.03838,593.89825 375.16852,593.26876 375.16852,591.77384 C 375.16852,589.89815 375.87226,589.7908 388.16852,589.7908 C 400.47198,589.7908 401.16852,589.89723 401.16852,591.7771 C 401.16852,592.99587 400.39568,593.88035 399.16852,594.06605 C 392.22119,595.11725 392.66852,594.27465 392.66852,606.30985 L 392.66852,617.29085 L 388.66852,617.29085 L 384.66852,617.29085 L 384.66852,606.84985 z M 512.8903,603.54075 L 513.16852,589.7908 L 523.16852,589.7908 C 532.50185,589.7908 533.16852,589.92413 533.16852,591.7908 C 533.16852,593.4686 532.3267,593.87545 527.94307,594.31625 C 525.06908,594.60525 522.19683,595.36245 521.56029,595.99905 C 519.54272,598.01655 521.35122,600.14645 525.36269,600.47715 C 528.67192,600.74985 529.16852,601.11705 529.16852,603.29075 C 529.16852,605.46455 528.67192,605.83175 525.36269,606.10445 C 521.35122,606.43515 519.54272,608.56495 521.56029,610.58255 C 522.19683,611.21915 525.06908,611.97645 527.94307,612.26535 C 532.4093,612.71455 533.21495,613.11775 533.48807,615.04085 C 533.80221,617.25275 533.62815,617.29085 523.20985,617.29085 L 512.61208,617.29085 L 512.8903,603.54075 z M 645.89026,603.54075 L 646.16856,589.7908 L 651.05806,589.48031 C 653.74726,589.30954 656.44646,589.66874 657.05626,590.27853 C 657.66606,590.88832 659.29076,594.33525 660.66676,597.93825 C 662.04276,601.54135 663.61856,604.52615 664.16856,604.57115 C 664.71856,604.61615 666.32976,601.63275 667.74906,597.94125 C 669.16846,594.24985 670.79476,590.76453 671.36326,590.19608 C 671.93166,589.62763 674.37046,589.30389 676.78266,589.47666 L 681.16856,589.7908 L 681.44676,603.54075 L 681.72496,617.29085 L 677.69676,617.29085 L 673.66856,617.29085 L 673.66856,609.70745 C 673.66856,600.26195 672.34426,600.29805 668.72426,609.84225 C 666.31586,616.19215 665.82326,616.81705 663.00736,617.09465 C 660.04176,617.38695 659.83846,617.15045 657.59686,610.80065 C 654.04546,600.74085 652.66856,600.42445 652.66856,609.66835 L 652.66856,617.29085 L 649.14026,617.29085 L 645.61206,617.29085 L 645.89026,603.54075 z M -30.331483,573.2908 C -32.600003,571.02227 -32.766913,569.97293 -31.296293,567.22506 C -30.275803,565.31825 -25.188223,565.2908 327.16852,565.2908 C 679.52526,565.2908 684.61286,565.31825 685.63336,567.22506 C 687.10396,569.97293 686.93706,571.02227 684.66856,573.2908 C 682.67606,575.2833 681.33516,575.2908 327.16852,575.2908 C -26.998143,575.2908 -28.338983,575.2833 -30.331483,573.2908 z M 2.6685169,544.73072 C -13.143253,541.32249 -28.410563,530.00607 -34.848243,516.92259 C -43.312443,499.72055 -43.314643,479.8656 -34.854263,462.67119 C -30.445553,453.71116 -20.344273,443.83084 -11.064943,439.40222 C 1.4558169,433.42661 2.7458169,433.32144 63.668517,433.30932 C 116.96448,433.29871 119.29566,433.3758 122.36997,435.25032 C 131.60909,440.88373 130.55231,455.71942 120.62908,459.6899 C 117.13683,461.08722 109.89572,461.2908 63.685797,461.2908 C 12.076087,461.2908 10.599917,461.34454 5.0372169,463.42581 C -2.2152531,466.13931 -8.7002231,472.07101 -11.001123,478.09584 C -13.109853,483.61747 -13.320783,495.00729 -11.418363,500.62657 C -8.7430131,508.52893 -0.40221309,515.1441 9.4677369,517.19153 C 12.924777,517.90866 32.872637,518.2908 66.849707,518.2908 C 117.32285,518.2908 119.03325,518.3531 122.19402,520.30656 C 128.53124,524.22318 130.51545,533.23035 126.39859,539.39292 C 121.66265,546.48219 123.38349,546.29666 63.168517,546.20975 C 20.858477,546.14867 7.7613969,545.82849 2.6685169,544.73072 z M 164.79001,544.58089 C 162.93184,543.66549 160.57102,541.53823 159.54375,539.85366 C 157.78373,536.96747 157.67578,533.80581 157.67226,485.0408 L 157.66852,433.2908 L 217.91852,433.30267 C 282.98819,433.31549 283.08045,433.32211 294.24017,438.78205 C 301.06182,442.11958 307.95426,449.77968 310.71263,457.08917 C 312.4305,461.64142 312.77914,464.31708 312.4421,470.36209 C 311.56425,486.10671 302.4325,496.42904 284.73702,501.67928 C 276.99242,503.97709 239.98801,504.02449 235.57464,501.74225 C 228.58215,498.1263 226.29371,487.26655 231.27638,481.34498 C 235.72693,476.0558 236.75538,475.82581 258.34882,475.2908 C 276.87931,474.83168 278.75964,474.61847 281.34882,472.68288 C 285.70575,469.42577 285.13378,466.2775 279.68607,463.53067 C 275.20683,461.27215 275.17178,461.27072 230.68607,461.53067 L 186.16852,461.7908 L 185.66852,499.2908 L 185.16852,536.7908 L 182.76986,540.15394 C 178.62557,545.96462 171.27343,547.77485 164.79001,544.58089 z M 260.11314,545.33163 C 256.76745,543.97668 246.54337,534.14143 243.4945,529.34502 C 240.36258,524.41793 239.98033,520.87364 242.04734,515.92658 C 244.79306,509.35516 252.25276,506.00839 259.11002,508.27149 C 263.55055,509.737 273.07881,518.31557 276.84254,524.23658 C 281.64664,531.7943 280.15089,539.69637 273.02722,544.39291 C 270.05012,546.35568 263.76912,546.81224 260.11314,545.33163 z M 306.16852,544.39726 C 300.83052,541.04134 289.70482,528.90416 288.67498,525.31334 C 285.81691,515.34783 294.82802,505.78493 305.23659,507.73759 C 308.98161,508.44016 318.99316,517.028 323.83461,523.69084 C 329.09017,530.92356 327.09831,540.94871 319.63934,544.80589 C 315.70178,546.84208 309.77113,546.66218 306.16852,544.39726 z M 386.16852,544.81095 C 363.23362,539.76201 347.29635,524.5782 342.79879,503.49158 C 341.21788,496.07957 341.41615,481.98685 343.2083,474.38387 C 347.70578,455.30388 363.46943,440.05731 384.12862,434.80583 C 392.81135,432.59872 460.49409,432.59364 469.20842,434.79945 C 490.75446,440.25327 505.90844,455.9365 510.2212,477.24459 C 516.74738,509.48859 498.66331,537.69346 466.97111,544.69967 C 457.45658,546.80305 395.60462,546.88823 386.16852,544.81095 z M 461.95798,516.80362 C 476.22049,513.08871 483.00062,504.1975 483.02472,489.17746 C 483.04635,475.69957 477.01552,467.2031 464.38357,462.91509 C 457.51833,460.58463 396.6772,460.50512 388.89415,462.81644 C 377.70178,466.14021 370.88549,474.71866 369.92454,486.69012 C 368.66475,502.38446 375.89577,512.95932 390.59787,516.92343 C 397.72048,518.84389 454.49079,518.74858 461.95798,516.80362 z M 533.7396,544.53925 C 528.47444,541.85447 526.16852,538.0255 526.16852,531.96747 C 526.16852,526.60024 528.03663,522.91664 532.16852,520.1365 C 533.76038,519.06542 545.49445,518.6846 589.66856,518.27038 C 647.99456,517.72346 650.40006,517.52948 652.72486,513.18562 C 654.17636,510.47344 652.26976,507.46405 647.83806,505.47224 C 644.72156,504.07157 638.51666,503.73719 606.66856,503.25362 C 574.43326,502.76418 568.54136,502.4415 564.70129,500.95524 C 554.30896,496.93297 547.13687,490.84696 542.4646,482.08586 C 539.22667,476.01436 539.14815,461.00211 542.31843,454.14163 C 545.05269,448.22473 551.1967,442.07032 557.61757,438.81662 C 568.35116,433.37751 569.49176,433.2908 630.30186,433.2908 L 686.51506,433.2908 L 689.62776,435.90992 C 697.69926,442.70171 697.38296,453.49811 688.95026,459.02687 C 686.48476,460.64339 681.56126,460.83258 630.03616,461.2908 C 574.80526,461.78197 573.76266,461.82802 570.99046,463.89872 C 566.63706,467.15059 567.20266,470.30375 572.63046,473.0408 C 576.98666,475.23751 577.87486,475.29121 610.13046,475.30816 C 634.62086,475.32104 644.88176,475.68868 649.79056,476.72915 C 663.18126,479.5675 674.15006,487.51257 678.86786,497.7908 C 682.36566,505.41096 682.14916,517.76806 678.38336,525.45134 C 675.17696,531.9933 669.91036,537.12108 662.58546,540.83287 C 652.46246,545.96258 648.59916,546.25476 590.66856,546.27188 C 541.68935,546.28636 536.87877,546.13995 533.7396,544.53925 z "
       style="fill:#38a5c8" />
  </g>
</svg>
