<?xml version="1.0" encoding="UTF-8" standalone="no"?>
<!-- Created with Inkscape (http://www.inkscape.org/) -->
<svg
   xmlns:dc="http://purl.org/dc/elements/1.1/"
   xmlns:cc="http://web.resource.org/cc/"
   xmlns:rdf="http://www.w3.org/1999/02/22-rdf-syntax-ns#"
   xmlns:svg="http://www.w3.org/2000/svg"
   xmlns="http://www.w3.org/2000/svg"
   xmlns:sodipodi="http://sodipodi.sourceforge.net/DTD/sodipodi-0.dtd"
   xmlns:inkscape="http://www.inkscape.org/namespaces/inkscape"
   width="493.55969"
   height="75.12558"
   id="svg2"
   sodipodi:version="0.32"
   inkscape:version="0.45.1"
   version="1.0"
   sodipodi:docbase="/home/juan/proyectos/CROS/home_page/logos"
   sodipodi:docname="logo_lr_bw.svg"
   inkscape:output_extension="org.inkscape.output.svg.inkscape">
  <defs
     id="defs4" />
  <sodipodi:namedview
     id="base"
     pagecolor="#ffffff"
     bordercolor="#666666"
     borderopacity="1.0"
     inkscape:pageopacity="0.0"
     inkscape:pageshadow="2"
     inkscape:zoom="1.4"
     inkscape:cx="350"
     inkscape:cy="62.857142"
     inkscape:document-units="px"
     inkscape:current-layer="layer1"
     inkscape:window-width="1280"
     inkscape:window-height="977"
     inkscape:window-x="0"
     inkscape:window-y="47" />
  <metadata
     id="metadata7">
    <rdf:RDF>
      <cc:Work
         rdf:about="">
        <dc:format>image/svg+xml</dc:format>
        <dc:type
           rdf:resource="http://purl.org/dc/dcmitype/StillImage" />
      </cc:Work>
    </rdf:RDF>
  </metadata>
  <g
     inkscape:label="Capa 1"
     inkscape:groupmode="layer"
     id="layer1"
     transform="translate(-127.19938,-573.71934)">
    <path
       id="path2428"
       d="M 155.10781,647.1742 C 147.5404,645.13647 142.71189,642.41619 137.6146,637.31891 C 129.28508,628.98939 125.63386,616.56493 127.82237,603.99763 C 129.89128,592.11704 136.57073,582.99732 147.32052,577.37602 L 153.35714,574.21934 L 193.35714,573.92458 C 215.35714,573.76247 234.36146,573.88149 235.58895,574.18907 C 238.74176,574.9791 241.1875,580.14485 240.39891,584.34839 C 239.12671,591.12981 238.94382,591.1604 196.32831,591.71934 L 158.20644,592.21934 L 154.05154,594.97046 C 146.15476,600.19922 143.49816,611.21488 147.92738,620.36443 C 149.58332,623.78515 151.13425,625.19915 155.67738,627.43016 L 161.35714,630.21934 L 198.56503,630.52493 L 235.77291,630.83053 L 238.31503,633.85166 C 241.13395,637.20176 241.44111,639.34356 239.66245,643.24728 C 237.23436,648.57638 236.05245,648.72495 196.6568,648.65353 C 168.68849,648.60282 159.15234,648.26329 155.10781,647.1742 z M 264.68313,647.00722 C 263.21243,646.09483 261.52493,644.28563 260.93313,642.98678 C 260.23365,641.45158 259.85714,628.91949 259.85714,607.17229 L 259.85714,573.71934 L 302.26977,573.71934 L 344.6824,573.71934 L 350.97888,576.97883 C 359.34973,581.31215 363.06774,586.48279 363.65548,594.60819 C 364.19265,602.03445 362.72797,606.51588 358.26007,611.11633 C 351.40282,618.17701 348.31612,619.10096 330.13247,619.53582 L 313.90779,619.92384 L 310.88247,616.89851 C 307.11484,613.13089 306.89808,608.94736 310.26727,605.0251 C 312.65913,602.2406 312.78774,602.21555 327.24173,601.71934 C 340.24902,601.27279 342.02678,600.99839 343.87055,599.15262 C 346.47715,596.54319 345.648,594.19069 341.62774,592.78922 C 339.71367,592.12197 327.34306,591.71934 308.75602,591.71934 L 278.95335,591.71934 L 278.65524,617.30293 L 278.35714,642.88652 L 275.09136,645.80293 C 271.40368,649.09611 268.57737,649.42313 264.68313,647.00722 z M 323.27059,642.56083 C 317.39726,636.92097 316.85714,636.05138 316.85714,632.23515 C 316.85714,629.0711 317.46553,627.49642 319.38448,625.69365 C 323.40129,621.92006 327.66208,622.49744 333.46008,627.60104 C 342.58209,635.63055 344.08944,640.64089 338.93406,645.79626 C 334.17121,650.55912 330.89529,649.88245 323.27059,642.56083 z M 359.35714,646.87517 C 355.21321,644.33812 349.03968,637.29483 348.26924,634.22514 C 346.78226,628.30054 353.4807,621.58121 359.18054,623.2798 C 362.49743,624.26825 372.69767,634.71678 373.38042,637.82532 C 373.74362,639.47898 373.35725,641.78535 372.41021,643.61671 C 369.66279,648.92964 364.72584,650.16206 359.35714,646.87517 z M 412.35714,647.31032 C 400.98617,644.49274 391.7347,637.19744 387.26983,627.52756 C 384.63836,621.82841 384.35714,620.20555 384.35714,610.71934 C 384.35714,601.4298 384.66496,599.56264 387.02732,594.52284 C 390.42799,587.26794 396.83956,580.85638 404.41161,577.13855 L 410.35714,574.21934 L 440.35714,574.21934 L 470.35714,574.21934 L 476.03229,576.87975 C 483.60392,580.4292 489.84546,586.36802 493.42147,593.42555 C 496.16981,598.84962 496.35545,599.95319 496.33067,610.71934 C 496.30843,620.378 495.95594,622.97504 494.12919,626.93904 C 489.33714,637.33768 478.54963,645.3808 466.37688,647.63106 C 458.29123,649.12577 418.73601,648.89091 412.35714,647.31032 z M 462.77136,629.64432 C 469.56467,628.18741 473.91675,625.07493 476.60714,619.74938 C 479.24443,614.52893 479.51204,608.2225 477.319,602.97382 C 475.24706,598.01496 473.11496,595.78487 468.35714,593.60007 C 464.83914,591.9846 461.50902,591.76062 440.72133,591.7413 L 417.08552,591.71934 L 411.81861,594.47081 C 405.01607,598.0245 402.35079,602.75194 402.37259,611.22536 C 402.39759,620.94001 406.91274,626.70203 416.52461,629.28548 C 422.5592,630.90744 455.68321,631.16445 462.77136,629.64432 z M 511.00849,646.19324 C 508.38647,643.98696 507.85714,642.8299 507.85714,639.30476 C 507.85714,636.20277 508.45979,634.50294 510.10714,632.95842 C 512.30035,630.90211 513.30479,630.84092 549.90314,630.5341 C 583.83931,630.2496 587.70911,630.04887 590.15314,628.44629 C 593.58116,626.19849 593.58149,624.24061 590.15423,621.99239 C 587.80012,620.44814 584.09011,620.15166 561.40423,619.69483 C 532.66652,619.11613 530.5836,618.71073 524.01951,612.41866 C 519.05473,607.65962 516.85714,602.68625 516.85714,596.20952 C 516.85714,586.78479 522.32141,579.18593 531.59317,575.71691 C 536.59799,573.84437 539.3966,573.71934 576.30576,573.71934 L 615.67935,573.71934 L 618.26825,576.79607 C 621.20475,580.2859 621.48153,582.61123 619.43214,586.57432 C 616.85713,591.55383 615.48443,591.71934 576.76043,591.71934 C 546.44464,591.71934 540.2918,591.96033 537.80748,593.24502 C 534.13638,595.14342 534.05613,597.14762 537.55918,599.44629 C 539.91197,600.99016 543.62805,601.28784 566.30918,601.74927 C 595.98921,602.35309 598.02921,602.84287 605.74937,611.21825 C 610.20429,616.05127 611.33308,619.96659 610.64917,628.21369 C 610.00387,635.99508 606.31969,640.87361 597.99067,644.97585 L 591.40523,648.21934 L 552.78253,648.53213 L 514.15984,648.84492 L 511.00849,646.19324 z "
       style="fill:#0c0c0c" />
  </g>
</svg>
